<?xml version="1.0" standalone="no"?>
<!DOCTYPE svg PUBLIC "-//W3C//DTD SVG 20010904//EN"
 "http://www.w3.org/TR/2001/REC-SVG-20010904/DTD/svg10.dtd">
<svg version="1.0" xmlns="http://www.w3.org/2000/svg"
 width="448.000000pt" height="448.000000pt" viewBox="0 0 448.000000 448.000000"
 preserveAspectRatio="xMidYMid meet">
<metadata>
Created by potrace 1.14, written by Peter Selinger 2001-2017
</metadata>
<g transform="translate(0.000000,448.000000) scale(0.100000,-0.100000)"
fill="#000000" stroke="none">
<path d="M4371 4468 c-25 -4 -63 -10 -85 -13 -23 -3 -52 -8 -66 -10 -14 -2
-45 -7 -70 -10 -25 -4 -56 -8 -70 -10 -63 -10 -300 -45 -340 -50 -25 -3 -88
-12 -140 -20 -52 -8 -117 -17 -145 -21 -27 -3 -59 -8 -70 -10 -16 -3 -188 -28
-270 -39 -35 -5 -107 -16 -200 -30 -106 -16 -152 -23 -220 -30 -27 -3 -57 -8
-65 -10 -8 -3 -80 -14 -160 -25 -80 -12 -158 -23 -175 -25 -157 -23 -299 -46
-303 -49 -6 -6 -4 -1767 2 -1773 3 -3 554 -6 1226 -7 1078 -1 1220 1 1221 14
1 19 1 2101 0 2116 -1 13 -11 13 -70 2z"/>
<path d="M1707 4080 c-50 -9 -113 -18 -177 -26 -19 -3 -46 -7 -59 -9 -13 -2
-45 -7 -70 -11 -25 -3 -57 -8 -71 -10 -14 -2 -119 -18 -235 -34 -116 -17 -221
-33 -235 -35 -14 -2 -45 -6 -70 -10 -25 -4 -56 -8 -70 -10 -14 -2 -47 -7 -75
-11 -27 -3 -57 -7 -65 -9 -8 -2 -51 -8 -95 -15 -44 -6 -91 -13 -105 -15 -75
-11 -126 -19 -230 -34 l-115 -16 0 -749 0 -749 883 0 c485 0 886 4 890 7 4 4
7 399 7 877 l0 869 -30 -1 c-16 -1 -52 -5 -78 -9z"/>
<path d="M33 1410 l0 -758 46 -6 c25 -3 57 -8 71 -10 14 -3 61 -10 105 -16 44
-6 91 -13 104 -15 13 -2 43 -7 65 -10 23 -4 50 -8 61 -10 11 -2 45 -6 75 -10
30 -4 66 -9 80 -11 14 -2 72 -11 130 -20 58 -8 116 -17 130 -19 14 -2 45 -7
70 -10 25 -3 52 -7 60 -10 8 -2 38 -7 65 -10 28 -3 60 -7 72 -9 12 -3 73 -12
135 -21 134 -19 165 -24 198 -30 14 -2 45 -7 70 -10 25 -3 56 -7 69 -10 29 -5
129 -18 156 -19 19 -1 20 8 20 884 l0 885 -891 1 -891 1 0 -757z"/>
<path d="M1990 2121 c-2 -183 0 -1754 2 -1756 2 -2 28 -6 58 -10 30 -3 62 -8
70 -10 8 -2 33 -6 55 -9 53 -7 379 -55 413 -60 15 -3 47 -8 72 -11 39 -5 112
-16 200 -30 14 -2 61 -9 105 -15 44 -6 94 -14 110 -16 17 -3 41 -7 55 -9 35
-5 178 -26 220 -31 19 -3 47 -7 62 -10 15 -3 42 -7 60 -9 18 -3 51 -7 73 -10
72 -12 89 -14 200 -30 126 -18 160 -24 195 -30 31 -5 89 -14 143 -20 23 -3
112 -16 197 -29 85 -13 157 -22 159 -20 3 3 5 2012 2 2130 l-1 32 -1225 0
-1225 0 0 -47z"/>
</g>
</svg>
